# AST/ASF file generated using VICON BodyLanguage
# -----------------------------------------------
:version 1.10
:name VICON
:units
  mass 1.0
  length 0.45
  angle deg
:documentation
   .ast/.asf automatically generated from VICON data using
   VICON BodyBuilder and BodyLanguage model FoxedUp or BRILLIANT.MOD
:root
   order TX TY TZ RX RY RZ
   axis XYZ
   position 0 0 0  
   orientation 0 0 0 
:bonedata
  begin
     id 1 
     name lhipjoint
     direction 0.567725 -0.736092 0.368589 
     length 2.42353 
     axis 0 0 0  XYZ
  end
  begin
     id 2 
     name lfemur
     direction 0.34202 -0.939693 0  
     length 7.24894  
     axis 0 0 20  XYZ
    dof rx ry rz
    limits (-160.0 20.0)
           (-70.0 70.0)
           (-60.0 70.0)
  end
  begin
     id 3 
     name ltibia
     direction 0.34202 -0.939693 0   
     length 7.6997   
     axis 0 0 20   XYZ
    dof rx
    limits (-10.0 170.0)
  end
  begin
     id 4 
     name lfoot
     direction 0.100767 -0.276854 0.955614   
     length 2.37556   
     axis -90 7.62852e-016 20   XYZ
    dof rx rz
    limits (-45.0 90.0)
           (-70.0 20.0)
  end
  begin
     id 5 
     name ltoes
     direction 1.53592e-011 -4.21894e-011 1   
     length 1.18363   
     axis -90 7.62852e-016 20   XYZ
    dof rx
    limits (-90.0 20.0)
  end
  begin
     id 6 
     name rhipjoint
     direction -0.556459 -0.742938 0.372017   
     length 2.4012  
     axis 0 0 0  XYZ 
  end
  begin
     id 7 
     name rfemur
     direction -0.34202 -0.939693 0   
     length 7.5119   
     axis 0 0 -20   XYZ
    dof rx ry rz
    limits (-160.0 20.0)
           (-70.0 70.0)
           (-70.0 60.0)
  end
  begin
     id 8 
     name rtibia
     direction -0.34202 -0.939693 0   
     length 7.50155   
     axis 0 0 -20   XYZ
    dof rx
    limits (-10.0 170.0)
 end
 begin
     id 9 
     name rfoot
     direction -0.118427 -0.325376 0.938139   
     length 2.32487  
     axis -90 -7.62852e-016 -20   XYZ
    dof rx rz
    limits (-45.0 90.0)
           (-20.0 70.0)
  end
  begin
     id 10 
     name rtoes
     direction -1.53525e-011 -4.21868e-011 1   
     length 1.15233   
     axis -90 -7.62852e-016 -20   XYZ
    dof rx
    limits (-90.0 20.0)
  end
  begin
     id 11 
     name lowerback
     direction 0.0287568 0.999577 -0.00434502   
     length 2.15243   
     axis 0 0 0   XYZ
    dof rx ry rz
    limits (-20.0 45.0)
           (-30.0 30.0)
           (-30.0 30.0)
  end
  begin
     id 12 
     name upperback
     direction 0.0294009 0.99956 0.00404628   
     length 2.15427   
     axis 0 0 0   XYZ
    dof rx ry rz
    limits (-20.0 45.0)
           (-30.0 30.0)
           (-30.0 30.0)
  end
  begin
     id 13 
     name thorax
     direction 0.0151014 0.999868 0.0059419   
     length 2.14898   
     axis 0 0 0   XYZ
    dof rx ry rz
    limits (-20.0 45.0)
           (-30.0 30.0)
           (-30.0 30.0)
  end
  begin
     id 14 
     name lowerneck
     direction -0.0249197 0.989906 0.139515   
     length 1.6861   
     axis 0 0 0   XYZ
    dof rx ry rz
    limits (-20.0 45.0)
           (-30.0 30.0)
           (-30.0 30.0)
  end
  begin
     id 15 
     name upperneck
     direction 0.0438463 0.988795 -0.142693   
     length 1.71276   
     axis 0 0 0   XYZ
    dof rx ry rz
    limits (-20.0 45.0)
           (-30.0 30.0)
           (-30.0 30.0)
  end
  begin
     id 16
     name head
     direction 0.0148499 0.997845 -0.0639186  
     length 1.7209  
     axis 0 0 0   XYZ
    dof rx ry rz
    limits (-20.0 45.0)
           (-30.0 30.0)
           (-30.0 30.0)
  end
  begin
     id 17 
     name lclavicle
     direction 0.940298 0.323464 -0.105876  
     length 3.9048  
     axis 0 0 0   XYZ
    dof ry rz
    limits (-20.0 10.0)
           (0.0 20.0)
  end
  begin
     id 18 
     name lhumerus
     direction 1 -4.48954e-011 -4.9675e-028   
     length 4.6851   
     axis 180 -30 -90   XYZ
    dof rx ry rz
    limits (-60.0 90.0)
           (-90.0 90.0)
           (-90.0 90.0)
  end
  begin
     id 19
     name lradius
     direction 1 -4.48992e-011 -1.03359e-026   
     length 3.39626   
     axis 180 -30 -90   XYZ
    dof rx
    limits (-10.0 170.0)
  end
  begin
     id 20
     name lwrist
     direction 1 -4.48906e-011 -1.67336e-026   
     length 1.69813   
     axis 9.90442e-015 90 90   XYZ
    dof ry
    limits (-180.0 0.0)
 end
  begin
     id 21 
     name lhand
     direction 1 -4.49006e-011 -3.34673e-026   
     length 0.486078   
     axis 2.1355e-014 90 90   XYZ
    dof rx rz
    limits (-90.0 90.0)
           (-45.0 45.0)
  end
  begin
     id 22 
     name lfingers
     direction 1 -4.48992e-011 -6.69345e-026   
     length 0.391889   
     axis 4.27099e-014 90 90   XYZ
    dof rx
    limits (0.0 90.0)
  end
  begin
     id 23
     name lthumb
     direction 0.707107 -6.34926e-011 0.707107   
     length 0.562676   
     axis -90 45 2.85299e-015   XYZ
    dof rx rz
    limits (-45.0 45.0)
           (-45.0 45.0)
  end
  begin
     id 24 
     name rclavicle
     direction -0.882459 0.414895 -0.221648   
     length 3.44646  
     axis 0 0 0   XYZ 
    dof ry rz
    limits (-10.0 20.0)
           (-20.0 0.0)
  end
  begin
     id 25 
     name rhumerus
     direction -1 -4.48962e-011 -2.37984e-027  
     length 5.55576   
     axis 180 30 90   XYZ
    dof rx ry rz
    limits (-90.0 60.0)
           (-90.0 90.0)
           (-90.0 90.0)
  end
  begin
     id 26 
     name rradius
     direction -1 -4.48982e-011 -6.86791e-027   
     length 3.32774   
     axis 180 30 90   XYZ
    dof rx
    limits (-10.0 170.0)
  end
  begin
     id 27 
     name rwrist
     direction -1 -4.48961e-011 -1.67336e-026   
     length 1.66387   
     axis 9.90442e-015 -90 -90   XYZ
    dof ry
    limits (-180.0 0.0)
  end
  begin
     id 28
     name rhand
     direction -1 -4.4897e-011 -3.34673e-026   
     length 0.507628   
     axis 2.1355e-014 -90 -90   XYZ
    dof rx rz
    limits (-90.0 90.0)
           (-45.0 45.0)
  end
  begin
     id 29
     name rfingers
     direction -1 -4.48854e-011 -6.69345e-026   
     length 0.409263   
     axis 4.27099e-014 -90 -90   XYZ
    dof rx
    limits (0.0 90.0)
  end
  begin
     id 30
     name rthumb
     direction -0.707107 -6.34913e-011 0.707107   
     length 0.587622   
     axis -90 -45 -2.85299e-015   XYZ
    dof rx rz
    limits (-45.0 45.0)
           (-45.0 45.0)
  end
:hierarchy
  begin
    root lhipjoint rhipjoint lowerback
    lhipjoint lfemur
    lfemur ltibia
    ltibia lfoot
    lfoot ltoes
    rhipjoint rfemur
    rfemur rtibia
    rtibia rfoot
    rfoot rtoes
    lowerback upperback
    upperback thorax
    thorax lowerneck lclavicle rclavicle
    lowerneck upperneck
    upperneck head
    lclavicle lhumerus
    lhumerus lradius
    lradius lwrist
    lwrist lhand lthumb
    lhand lfingers
    rclavicle rhumerus
    rhumerus rradius
    rradius rwrist
    rwrist rhand rthumb
    rhand rfingers
  end

#!OML:ASF E:\motion texture\Top Level 1\Subject 1\Session 1\male.ASF
:FULLY-SPECIFIED
:DEGREES
1
root 41.611 17.8271 6.45356 98.1542 -84.492 -88.7049
lowerback -5.70741 -0.113059 5.13164
upperback -1.93874 -0.552752 2.43078
thorax 1.17862 -0.312726 -0.412038
lowerneck -13.3266 -4.11991 -7.85676
upperneck 17.1561 -5.16791 5.46435
head 7.84035 -2.51021 2.53603
rclavicle -2.77056e-015 -3.97569e-015
rhumerus -29.0619 -13.5341 -75.3244
rradius 24.56
rwrist 10.1657
rhand -12.858 -26.9153
rfingers 7.12502
rthumb 13.2301 -56.4754
lclavicle -2.77056e-015 -3.97569e-015
lhumerus -34.3716 16.4936 81.0209
lradius 31.3422
lwrist -14.4809
lhand -7.24059 26.8977
lfingers 7.12502
lthumb 18.6394 56.0247
rfemur -9.89943 4.13724 24.5366
rtibia 13.938
rfoot -8.09954 -14.273
rtoes 9.93133
lfemur -7.44165 -5.25509 -13.2199
ltibia 9.40757
lfoot -8.41049 4.42341
ltoes 1.51463
2
root 41.6205 17.8331 6.45631 98.2438 -84.4728 -88.7735
lowerback -5.40216 -0.115873 5.40377
upperback -2.26038 -0.533799 2.29062
thorax 0.672885 -0.321184 -0.703288
lowerneck -13.349 -4.08475 -8.00507
upperneck 17.7658 -5.19244 5.77436
head 8.06011 -2.51134 2.66283
rclavicle -3.88873e-015 -3.97569e-016
rhumerus -29.1388 -13.3028 -75.6145
rradius 24.9626
rwrist 9.9798
rhand -12.167 -28.5225
rfingers 7.12502
rthumb 13.896 -58.0382
lclavicle -3.88873e-015 -3.97569e-016
lhumerus -34.4933 15.305 81.4729
lradius 32.1048
lwrist -13.9115
lhand -7.27711 27.0468
lfingers 7.12502
lthumb 18.6043 56.1772
rfemur -10.0344 4.02194 24.5345
rtibia 14.0644
rfoot -8.13445 -14.1494
rtoes 9.85531
lfemur -7.54318 -5.36355 -13.1998
ltibia 9.47502
lfoot -8.40342 4.54502
ltoes 1.53908
3
root 41.606 17.8277 6.4434 97.6484 -84.5418 -88.307
lowerback -5.00439 -0.054873 5.62478
upperback -2.57876 -0.414573 2.01143
thorax 0.12404 -0.28186 -1.10313
lowerneck -12.9966 -4.06806 -7.71324
upperneck 17.9453 -5.28708 5.80068
head 8.05535 -2.54622 2.61791
rclavicle 3.54706e-015 -3.71727e-014
rhumerus -29.6482 -13.2619 -75.9533
rradius 25.6044
rwrist 9.42957
rhand -12.986 -27.2646
rfingers 7.12502
rthumb 13.1067 -56.8327
lclavicle 3.54706e-015 -3.71727e-014
lhumerus -34.6239 14.2167 81.6182
lradius 32.5913
lwrist -13.8988
lhand -7.39475 26.9674
lfingers 7.12502
lthumb 18.4911 56.1086
rfemur -9.75509 4.03267 24.5196
rtibia 13.9311
rfoot -8.13785 -14.1733
rtoes 9.7845
lfemur -7.28073 -5.35862 -13.2667
ltibia 9.3459
lfoot -8.40931 4.44741
ltoes 1.55987
4
root 41.6057 17.8269 6.43759 97.1697 -84.5783 -87.8393
lowerback -5.50227 -0.161124 5.1943
upperback -2.36653 -0.587338 2.28504
thorax 0.618959 -0.350204 -0.595589
lowerneck -13.0381 -4.00241 -7.82494
upperneck 17.9063 -5.1352 5.65965
head 8.0384 -2.49297 2.60595
rclavicle 1.08089e-015 -4.17448e-015
rhumerus -28.9067 -12.5654 -76.0889
rradius 26.0134
rwrist 8.92699
rhand -13.1175 -27.0895
rfingers 7.12502
rthumb 12.98 -56.6657
lclavicle 1.08089e-015 -4.17448e-015
lhumerus -34.0255 14.1638 82.3633
lradius 33.0555
lwrist -14.0488
lhand -7.318 26.3209
lfingers 7.12502
lthumb 18.565 55.455
rfemur -9.74639 3.99323 24.4981
rtibia 13.9427
rfoot -8.16089 -14.2118
rtoes 9.85451
lfemur -7.28998 -5.40477 -13.2934
ltibia 9.38424
lfoot -8.4263 4.46079
ltoes 1.51897
5
root 41.6045 17.8264 6.43149 96.978 -84.5808 -87.6704
lowerback -5.51485 -0.176439 5.16202
upperback -2.43905 -0.605291 2.28938
thorax 0.550765 -0.362121 -0.573853
lowerneck -13.0162 -3.94694 -7.824
upperneck 18.0505 -5.0839 5.71789
head 8.0799 -2.46601 2.6321
rclavicle -8.38002e-015 -4.17448e-015
rhumerus -28.7519 -12.2093 -76.3358
rradius 26.5659
rwrist 8.57026
rhand -13.2789 -28.3483
rfingers 7.12502
rthumb 12.8244 -57.9344
lclavicle -8.38002e-015 -4.17448e-015
lhumerus -33.8136 13.5331 82.8001
lradius 33.5972
lwrist -13.9973
lhand -7.42926 26.2398
lfingers 7.12502
lthumb 18.4579 55.3841
rfemur -9.72821 4.04445 24.525
rtibia 13.9718
rfoot -8.15431 -14.244
rtoes 9.81907
lfemur -7.27171 -5.43611 -13.2761
ltibia 9.41121
lfoot -8.46751 4.4632
ltoes 1.54848
6
root 41.6037 17.8262 6.42531 96.6725 -84.5825 -87.3859
lowerback -4.84711 -0.207131 3.09269
upperback -2.8831 -0.53648 3.84348
thorax -0.238142 -0.330458 2.19368
lowerneck -12.9388 -3.92969 -8.84853
upperneck 18.2362 -4.56596 4.31184
head 8.08921 -2.42717 2.38922
rclavicle 4.5969e-015 -4.41302e-014
rhumerus -28.8422 -10.0206 -74.4694
rradius 27.2797
rwrist 7.2354
rhand -13.1519 -27.3833
rfingers 7.12502
rthumb 12.9467 -56.9617
lclavicle 4.5969e-015 -4.41302e-014
lhumerus -34.158 14.4142 85.1679
lradius 34.0589
lwrist -14.641
lhand -7.46397 25.8806
lfingers 7.12502
lthumb 18.4245 55.0281
rfemur -9.69695 4.04558 24.5459
rtibia 13.966
rfoot -8.18159 -14.2722
rtoes 9.79857
lfemur -7.25658 -5.57207 -13.259
ltibia 9.44344
lfoot -8.49468 4.53947
ltoes 1.78006
